<mxfile host="app.diagrams.net" agent="Mozilla/5.0 (Windows NT 10.0; Win64; x64) AppleWebKit/537.36 (KHTML, like Gecko) Chrome/130.0.0.0 Safari/537.36" version="24.8.1">
  <diagram name="Page-1" id="jnSyC4NcH4ARqEgrmjV1">
    <mxGraphModel dx="747" dy="500" grid="1" gridSize="10" guides="1" tooltips="1" connect="1" arrows="1" fold="1" page="1" pageScale="1" pageWidth="850" pageHeight="1100" math="0" shadow="0">
      <root>
        <mxCell id="0" />
        <mxCell id="1" parent="0" />
        <UserObject label="" plantUmlData="{&#xa;  &quot;data&quot;: &quot;@startuml\nactor User\nactor Bank\n\nUser -&gt; (Insert Card)\nUser -&gt; (Enter PIN)\nUser -&gt; (Withdraw Cash)\nUser -&gt; (Check Balance)\n\n(Withdraw Cash) --&gt; (Check Balance) : &lt;&lt;include&gt;&gt;\n\nBank --&gt; (Authorize Transaction)\n\n(Withdraw Cash) --&gt; Bank\n(Authorize Transaction) --&gt; (Dispense Cash)\n\n@enduml\n&quot;,&#xa;  &quot;format&quot;: &quot;png&quot;&#xa;}" id="3Vb_Sf_VNDnv27-762Kk-2">
          <mxCell style="shape=image;noLabel=1;verticalAlign=top;aspect=fixed;imageAspect=0;image=data:image/png,iVBORw0KGgoAAAANSUhEUgAAAiYAAAHTCAIAAACcG0QmAAAAKnRFWHRjb3B5bGVmdABHZW5lcmF0ZWQgYnkgaHR0cHM6Ly9wbGFudHVtbC5jb212zsofAAABKGlUWHRwbGFudHVtbAABAAAAeJx1kEtvwkAMhO/+FT7CIYhHhKoIRTxbQUmLyqNnK9mSFcFBG4eq/fV1gArUitto/Hl2vP1CyEm5z4BiyR2uC+Mucki8A6gM9EKsTVmV4IhcUr+6ExZVi+nLjfduJU0cfSpbpDf+KDXxTmMz4tjUAf6A6P2HMMBez3KclYkJQ4Cq05kblJLmzn4bXDniQivbnO+Eni65s3FOG9viYPTAS+W+4aT6E1hoDVlHczwaVyiOrUa72fYbfm1JgoODw2YXW37Q6QTtJj5FK6zGdZjRkfCtZLF7E+CrZs/Gz78GTvhoXc57wwKzTXQFur43tIJL4/Q93EQwNh9UZqIbcZ5Y3ga4Xj16DzAn3pa01WzDMMo1133pbAk/BiuROm3tozMAAFFuSURBVHhe7d15VBRX3j7w97wn5/33PZm/XBE1uKGOY+ISY2JcRieLTswezUQTs2eyjcnrvrPIYgQVkNUFxBBxRcGoENEgigRUCCCKC6goIopGowj4e4b6WVP5UjRNdxf08nz+4BT33q6uutV9n7q9VP/XAyIiolbxX7KAiIjIGIwcIiJqJYwcIiJqJYwcIiJqJYwcIiJqJYwcIiJqJYwcIiJqJYwcIiJqJYwcIiJqJYwcIiJqJYwcIiJqJYwcIiJqJYwc51RfX19aWnro0KEff/wxISFh/fr1gYGBAQEBX5o0ffp0NAsKCsJNEhMTMzIysrKyLl68KNeuUVlZiTs6ffp0RoOdO3cmNFizZk1gA39/f3X977333ssao0ePHqTxxBNPtDPYgAEDtPf43HPPabdn6tSpms74ctasWcouQHBwsLJf2EFlTwsKCkob3Lt3T3YKETWBkePwLl26lJqaiiHey8vrk08+GT9+/MCBAzG8Ykh96aWX3nnnHYye3377rTJ0KuNmU+Li4hYtWoSh9q233nr11VeHDx8+ZMiQxx57DGvr3r177969+zXAgqenpzKIYwF3hJbKqD1t2jRlvJ45c6Zyj8uWLVPXn5ycrIzXil9//VUZtRWms80mysvLtfeYm5ur3Z6UlJT/9IUmNQP/GJyvv/66srNPP/20El3dunVDVyAysTxs2DCl9u2331bao0uxhsjISLUHjh07hnuvqKiQ20fk7Bg5DubWrVuYeURFRWFGMm7cOORBnz59XnvttRkzZqxYsWLz5s1Hjhy5cOGCvFmDmpoajHSHDx/evn37unXrMA4iij7++GOMj8iM/v37Y9xEoiBmUPLGG29guMRq0SysAc70fX19Z8+e/dlnn73yyiuPP/54165dx4wZgzVgYrRr166ioqLa2lp5ry7j/v37SpIdP34cuXLgwAElukJDQ9GHc+fORX++++676FscOIQTuhod7u7ujmVM+FD+0UcfoQ3iTZloKjMqzCCvXLki74zIMTFy7F1dXV1+fj4S4quvvhoxYgRGqL/+9a8YmMLDw3/66afKykrR/ubNmwUFBXv27ImJiVm6dClaIpBwQ0xNOnfujNHt73//+wcffPB///d/GAfXr1+/detWjGunTp26fPmyWFWzfvvtNwyvyDlMsKZOnYqzfmzec889h1iKj4/HZmMUlrehP/r999+RUugrHIVt27YhaTAvRLTjwGHKiBzCtEk9G1CmUO+///7XX3+Nw4dDjJvghufOncO5iFw1kf1h5NgjTEcwlcGsZdKkSR4eHggMDDGIBwxMSCClDYYqREtycjLmH3PmzJkyZQrOlHv06IH2zz777Ntvvz1z5szly5djCEtPT8f8o6qq6o93YgiEELY8IiLin//858iRI5FAOKOfNWsWNqOkpES2ppaoqKhAHyJgkpKSkOiIHHTshx9+iBBSXv90c3PDKcWECRMQ/5i/Ki9pKkf/xo0bcnVEbYGRY0cQIcgPxAyGj7Fjx86fPz8lJQWDBWIGowaWQ0NDMZRg1jJgwIAuXbogWjC4LFy4MCoqCrUIJHsbWW7fvn306NHIyMhPP/0Uw2KfPn2wwSEhIYilu3fvytZkHXQpJkxHjhzBiQimxX5+fso7T8888wzORRD/ykumn332mY+PDxrs27evsLCwurparojIMIycNoYn/LZt2zA09O/ff9iwYTNmzNi1a9fx48cRIZjlfPTRR6NGjercufPTTz+NecyCBQvWrl27f//+Vnin3QiVlZXYr8WLF48fPx6x+sILLyAvf/zxx5s3b8qmZGuYFp89exaTpMTExKCgIJy74OQGZy2YFiOQMCXFzBjTJpz0ILFw+sKDQkZg5LSNkpKSVatWvfTSS3jCT548eenSpStXrsQTfty4cV27dsXZKAJmyZIlmzdvxpPfKScE2KnDhw9j7HvzzTcRP3/9618xq9u9ezdPulsf+vzXX3/ds2dPdHQ0jgJmojjRwUHp3bv33/72tw8//NDb2zs+Ph5z08bvHRK1CCOnVR09etTX1/epp57q16/fK6+8guc2Msbd3R3nmJ9//nlkZCQa3L59W97M2dXW1ubm5oaGhuJEGxk8evToefPmYT7E+GlbCJicnJytW7cGBwd/8cUXmJUihDAlQg598skny5YtwwQdp0T8ZhKZj5FjuPr6epzOz507t2/fvv379x8+fDiet0888cSnn34aERGBM0cXzBgTED8Y5jAFVGY/GN28vLz2799/584d2ZTawo0bN3CAMP/GydMHH3yAs6XOnTvjUY3zJxypLVu25OXlOeW8nGyCkWOgI0eOfPbZZzgrVD5NhMnNjBkz8Fx10HdiWl9NTQ3SOjAwcOLEiehD/P3uu+8wEXTlb//Yobq6upMnT+7atSsoKOjDDz/EJLVLly6IIsyEwsLC0tLSrl27Jm9DroqRY3uYuLz33nvdu3fH2V/Pnj0/+ugjPBv5GpGVMMv56aefFi9ePGbMGMTPO++8Ex0dXVxcLNuRHcC5Qn5+/g8//DB//vzXXnutV69e/fr1wyFbtmzZ3r17r1+/Lm9ALoORYzOFhYXTpk3r1q1bhw4dBg8ejMHx1KlTshHZQlVV1bZt26ZPn45+HjBgwBdffJGYmMiv6NuzS5cupaSkeHt7v/HGG5j3Dx06FPOh8PDw3Nxcfl/YpTByrIXn0tdff927d+/27dsPGTLku+++47sOrens2bPr169///33MZA9++yzCxYsSEtL4yGwc5ie4ixhzpw5o0eP7t69O3IIT5yMjIzff/9dNiXnwsixXHJy8vDhw5XrE2Oks7evYbqa+vr6nJycoKCgl19+2cPD4/XXX8dJNC95YP+qq6v37NmzZMmSF1988bHHHnvllVdWrFhx4sQJ2Y6cAiOnxerq6vz9/TGt6dixI8a106dPyxbU1m7fvr179+5vvvlm4MCBmHrOnj374MGD/NCB/cOBS01NnTt3Lk7m+vbt++mnn27evJnvgzoTRk7LzJgxo3Pnzt26dZs5cyY/3OwQCgsLg4ODn3/+eU9Pz3/961/79++vqamRjcj+XLhwYcOGDVOnTsWc9bXXXouOjm7qEunkQBg55lq3bh2Spnv37jExMbKOHAEGrNWrV48fP75Xr17Tp08/fPiwbEF26ffff09JSfnqq69w0jBu3LiQkBB+zcBxMXKad+TIkccff7xjx46Y2cg6ckDl5eUYtkaOHDlo0KCAgICzZ8/KFmSX6urqDhw48OWXXz722GMTJkzAvIc/c+dwGDmm3Lt374033mjfvj3m9fwygfPJy8ubP39+v379Xnrppc2bN/PCLY4C856tW7e+/fbb7u7u//jHP3bu3MkXSx0FI6dJBw8eVH5z89ixY7KOnMj9+/eTk5PffPNNT0/PhQsX8kNuDqSyshJzneeff753795z5szBOYRsQXaGkaPvk08+6dChw7Rp09SfRCOnd/78eS8vL0x63nrrrdTUVFlNdgwnCgEBAY8//vhzzz23ceNGfr/HbjFypFOnTuFst1u3bmlpabKOXEBNTU18fPwzzzzz9NNPr1u3joOXA8EJYkpKyuuvv96zZ8958+bxCwx2iJHzB9u3b+/UqdOECRM40NCePXsmTpzYu3fvwMBAvpPnWIqLi2fNmtW9e/fJkyfv379fVlPbYeT8B06LOnTosGDBAllBLiw3N1e5mg4eGJcvX5bVZMdu3rwZERExbNiwZ599Ni4ujj+pYA8YOf92//798ePHY36DWY6sI2q4khvOmhE83377Lb+Q6HBSU1Pffvvt/v37h4SE/Pbbb7KaWhEj59+XePrzn//cs2dPvvJLpl27ds3HxwcPlZkzZ5aXl8tqsm9FRUWffPJJ3759v/vuO15Ep624euRcvnwZp66DBg3imzdkpoqKitmzZ3t4eMybN+/q1auymuxbSUnJV1991adPH19fX/52XOtz6cjBtKZr164jR47kL3ZQS5WWln755Zc4XwkMDORrNQ4Hh2/GjBm9evVauHAhf2mpNblu5Bw7dqxz584TJkyQFURmKy4ufv/99/v27btmzRp+Ad7hlJeXY6ras2dPTFt57ZzW4RiRc/LkyaCgIN+HsIwS2aglsrKyOnXqNHXqVFlB1HLHjx9/4403hg0bxi+QOqLKyspFixb17t3b39//1q1bsppsyt4j5+LFiwsWLFCuW179EJZRgnLLLiibl5eH+c1HH30kK4iskJaW9tRTT/3jH/84c+aMrCO7h1Hliy++6N+/P8YWTliNY9eRk5OTg1y5evWqGjZaKEct2sibmXT69Gk3N7e33npLVhBZDUNVSEhInz59fHx8+AaPIyooKJg0adLQoUO3bt0q68gW7DdylPmNzJlGWjTXwYlM165d+f4NGerKlSs4X/7LX/6yefNmWUeOICMj47nnnhs3btzBgwdlHVnHfiPHxPxGS5nryBvruX79uoeHx5gxY2QFkQGOHj2KMQvnN7y8sYPavn37sGHDMOnhxcVtyE4jp7i4eO3atTJemoCWaC9X8Ud1dXU46xw8eDCvDE2tBg+2DRs29O/ff/78+fzZckdUU1MTHh7u6enp7e3NV0ptwk4jZ9WqVdrPC5iGlmgvV/FHL7zwQo8ePfi0p9aH6fXnn3+O0x1eX9JBVVRUKK+UbtmyRdZRC9lp5Pj5+clgMQnt5So08HDp3LnzuXPnZAVRa0HeDBo0CA9FXpTaQWVlZf31r3+dOHFiQUGBrCOz2WnkLF26VKaKSWgvV/FQWFhYhw4deIJJbQ6T7Hnz5v35z3/etm2brCNHUFdXt379+n79+s2dO7eaV2mziJ1Gjq1mOdnZ2cibyMhIWUHURnJyckaOHPnOO+9cunRJ1pEjwDz122+/xakDX2ezgJ1GTkhISIvey0F7uYoHD27dutWtWzdeYoDsTU1NzfLlyz09Pb///ntZRw4iNzd39OjRkydP5o9ZtIidRk5xcfG6detktjQBLXU/sTZixIi//OUvspTIPhQUFGDMevfddysrK2UdOYL79+8HBwf36dMnKiqqqY/C1tbWyiLXZqeRA4sWLTLzezloKW/84MGMGTM6d+7M1y7InmG64+XlNWDAgB9//FHWPcQxy86VlJRMnDjxhRdeKCwslHUN3yrlddu07DdykBaLFy+WCdMI2jTOlWvXrnXq1Ck5OVmUE9mhrKysIUOGTJ8+XfebHxyzHEJcXJynp6efn5+4PhtyyMSHm1yQ/UbOg4bfF0CiNDXXQTlq0UberAF/fIkcCMIGkYPgQfyIKo5ZjuLy5cvvvffe008/nZubqxYigTw8PBqfFrssu46cBw/nOmvXrr148aIaNlhGie78hshx/fjjjwMGDEDAaF9M45jlWHbs2NGvXz8cRHW6M3z48EmTJv2xleuy98hRnDp1atWqVQEBAVOnTsVfLKNENiJyfJi7v/XWWxMmTNB+Durxxx//+OOPNa3Irl25cuWdd94ZM2aM8qXR999/v3379k29HuNqHCNyVIGBgbKIyLnU19eHhob27ds3JSVFKXnttdcwZuXn5/+xIdm177//3tPTE+fHfn5+Xbt2ffLJJ2ULl8TIIbJHubm5Q4YMmTlz5t27d728vBA548ePl43IvmGqitOFYcOGDR06tEOHDj/88INs4XoYOUR26ubNmx9//PGoUaNWr17t5ubm4eGxd+9e2YjsG+asPj4+HTt2bNeuHY4gP/LOyCGyaxs2bBgwYIC7uzsmOoMGDeKY5RDu3bt3/PjxmJiYjz76CEdNiRyYP3++bOpiGDnO5uLFi+fOnTt8+PCBAwcSExPj4+NXrVq19CFfDZx8af8VRK26BqwN68SasX7cC+4L94hTObkdZIWampr8/PzIyEhlltOzZ09lwOrRo8e6detka7InhYWF06dPxymCcsiETp06VVVVydu4EkaOg8HZ0+nTp9PT03Hy6+fnp2QDeD8UERGxdu3aXbt27d2799ixYwUFBdrPl1sPa8M6sWasH/eC+8I94n69vLzwV9kYbBW2DVuI7Tx16hS2We4G6UHSpKWlffrpp25ubsoI5dZAO2YhfvjNUPt39+7drKyssLCwf/zjH7179/bw8PjLX/7Sv39/HMFXXnnl2rVrpaWlOTk5GRkZ27ZtS0hICA4ODmwQoIEnkX/TlFq1sXJzrAdrwzqxZqwf92Jv31Bk5Niv69evZ2dn//DDD5hbYBz3aoDH2fr16zHcY9xHAxkIdgPbhi3EdmJrsc1LlizBxmMvsC/YI+wXfzbGBPVlGZwvjx49GqmDAWvo0KEYvLp06TJjxgwMZxhT0JOYcVowVGkbKzfHerA2rBNrxjjFo2Ol33//HaeG+/fvj4uLQ5/Pmzfvvffee/7555E6OJooiY2NxRlbamoqDnRRUVFlZaV8ClkE68E0C+vEmrF+3Mvq1auV1yf8GigPAGwVtg1biO2Um24we4kcJLPy0Dft5ZdflkV6sDZ5B3ZPGWWw5cqUBWP0ihUrcLaC+QRm4vKR5bCwL9gj7Bf2bvHixcrECHuNfedkSFVeXo6hf8uWLThpxRiBLkL2TJo0acyYMf369XN3d0ePYUzB4HLy5EnZxRbBerA2rHPPnj0Yp3B6rg5SyjiFLcH2YKuwbXJzXVtdXR16LyUlRfk8tPLy9bJlyzZu3KjM8kVXV1RUlJWVicJWVlxcjG3DFmI71VfOsf3YC+xLU5cotQl7iRwzBTrXLOf8+fNbt27FgILBF0c9MTERw7F8dLgA7DX2HT2AfkBvoE/QM7KznFRtbS2mg9hlTDiUs1H0Q3R09O7duxHDuld7QqFtXyw1B+4U24Otwrap7+1hm7Hl2H6X+lADzo0wTY+MjPz/73P6+uIM4PDhw5cvX5a95lCw/dgL7IuyU3gmYh+xp7Y9F2TktDac42zatAmTGAyvUVFROG2UR97loU/QM4sWLUIv/fDDD1euXJGd6OAwn1i3bp3yphds3rw5JyfHEeey2GZsObZfHaSwX7oXVHZ0N27cSE5OxiQG83IEbVJS0rlz52R3OB3sI/YU+4u9xhnGrl270A+ya1qIkdNKioqKgoKCMIxi9vrLL7/IY0tNQF+hx9Bvy5cvx1jmuB+Ny8/PDwkJUV9ILC4ulrvqFLBf6ovD2F+HvmJCXV1dZmbmd999h31ZsWLFkSNHMODKHXYZ2Hf0AAYxLy8v9MmhQ4cse/2NkWOssrIyjJUYMePi4lr/xRBngt5DHy5cuBD9WVpaKjvaLt27dw+nxspHPzAQm/9Dt84B+4u9Vj42gn6w7eszxqmtrf35558xacOWp6SkVFRUyB1zeegTHNAlS5bgyB48eLBFL6sycoyyc+dOJM3q1avb/K1CJ4P+RK+ibzHlt9tJz/79+5XXIg4cOCB3wCWhH9Ab6BP0jOwsu1FeXo7ZDEbSH3/80RFf52x96CX01eLFi4ODg838XAkjx8YwCO7YsWPevHk//fSTPD5kU+hh9PP27dvtJ3hu374dFRWFZyDOAeXmUgP0jPIuJvpKdl/bOXXqFJImLCyMJ4iWQb+FhobiyBYXF8vO/SNGji3l5eXNmjULM015QKzg5uYmixpptk2zDdqWNZuH3p45c+aJEyfkwWhd9+7di46Oxlm8s75JY1voJfQVeqzNX227cuWKj4/PmjVrbPXNGKdhwbMSfag8Cy5fviw7+iFGTjNw+rN69WpzvsGLUyScu1n2BqP26IojPWLECO2/CtGm2QdHsw2sdPHiReV78mDBW1ZWbh76HD2Pk6y2mu788ssvc+bMKSgokFvWEo8++qjah7Bt2zbZ4o+s7DRBe+/qEZw6dSr+feSRR/AXy0qh9n6t3Ab0GPoNvSc7tLVgiuzn54fUkVtmHt3+MY45vW3lM1HLnLvThf5cunTp1q1bZXc3YOQ079ChQz169Jg2bVpTc8ba2lrMyq35uHNLn8aiTbM3abaBlVq6/YIFN2kM/Y+jcP/+fXl4DLa+gdyalmtpJ7S0vWkmjqD493//93/79eunW2UZpQNltxovODh4z549cmtaziadYA5z7sjEcWwpK2+Ovl2+fLnsdEaOmZA6nTt3bteu3bhx4xq//4mtys/Pl13eEk09UMaOHYvTT/VfVeNBITk52a2Bemqjnu8oVea01BaqN1E1LlFpq9Rpme5qdQvd9LbKAjgKAQEB4ugYKi4uzlZv27jpda+JnhHtCwsLlWaAZbVNUzcXtGsTaxb/4gH5yiuvKBdbElUWw0aiJ2XnGiksLCwzM1Nuh0Uad1fjPtd92Lf0kLmZ0dvaNqafibp3pLbUDhoWQw+HhISInmfkmAup06VLF6QO/g4YMCA2NlZ5GfrYsWPWn+Rqj6440uJf3bk8RoFJkyYpy2p7T09PZQFVam7ptnzyySeVhWrNrdTaxguN6VaZXm21poHuVlkGxyI3N1cePGOcPn06NDRUboGldHdct2d0HwPam6vLujfXpa0Vr+WKGyr/av/aBHoS/Sm72BgFBQXR0dFyCywlOkG3z3Uf9uYfMt0jrkv3iOg+E3XvSHfQsEZkZKT4bhYjpwWQOl27dlUu6ItJT/fu3ZcsWbJo0SLrP0+pHPL/+q//6tGjh+4zXDDRRvdRrlto+l0iEwuNmahSqA1M36lYtgCOhZ+fnzxyxsAdXbt2TW6BpR7VvJuCc0Ol0ETPmPhXXdYW6va8Snvvpk+ulX9HjhyJiY6osgZ6stUOnL+/v/XPWZVu/4hl3c7XbWnikJnT2822MX1HuptkDfSzr6+vtvOdNnL+c7V3W2vfvr2y0K1bt44dO+LAWP95aDzhX3zxxezsbJxliJML3QNvzqO82UKVh4eH20PqvTe+ie5tFbpVuqttao6v3kp3VS0iHuLGWbp0qbxvK+juuImeEf9qM0Ot0l2nLhMtm7pf7R3ZBPpTdrExDD1w2n/VZd2HfUsPmYkqlW4b3WeibkttoW4DC/j4+Gg732kjxwiJiYkdOnRA2PTr1++ZZ57B3++++w4THevPmNS3ZPEXy9oq3QMvCnUfKM0Wqky3bLzQmLbK/DOmgQMHKgvNtjQfjgXOYeWRMwbuyIazHN0dN9Ezpv81UajLRMum7qjx6ZE10JOteeCsf86qmuofsazSfdirdAsVJqpU2jamn4m6a9NtaQ30sziTYOSYS8mbvn37PvHEE88+++zGjRuV93Ly8vJiY2NlT7eQiSOte+BNtFGXdV+W1V2b6ZaNFxozfwN0X1bWvbll1q9fjyMiD54xzp49u2rVKrkFltLdcRM9I/5VO7O6iXcLTDPRsqn7bXx6ZA30JPpTdrExCgsLjXsvR/eQ6T7sW3rITFSpdO9d95mouzbdltaIjIz89ddftZ3PyDHLli1bOnXqhPnN5MmTG39ibcWKFcePH5ed3RK6DxQT7xkq83TTbx3rfvhE93Gm21ItVD9XI17i19J93cD0arUt1Vqx3FLHjh3DsRBHx1A4Edm6davcDouIl1mU7+WY6BnxGGi2Y03Tban7CDSxSRZDH6InZecaafXq1YcPH5bb0ULm94/u0dEt1N5cEEdcl+46dZ+Junek29JimZmZoaGhoucZOc07dOhQr169vvnmm6a+l1NfXx8UFJSeni67nFoRTgVwFFr/26Dbt2/HGTq/u24Z9Bt6D30ou9V4ODvZu3ev3CCykT179uD5KDudkdMs868+gNM0dDGvO9v6rly5snz58lY+TdYqLS2dP39+SkqK3DIyCT2GfmvD64Lv2LEjICDA4qsPkC70p5+fX1OnEY4UOXfu3HnzzTfxV1bYDeSNr69vbGwsz3lbB/p5/fr1Pj4+6Hl5MFrdzz//vGDBgk2bNvHom4b+QS+hr9BjshNbnXJ1lrVr1/KoWQ99uGbNGoyBJn5W0WEip66ubt68eb/++iv+WvbTQK2mpKQEIR8aGnr27Fl5TMhG0LfoYQwW6G15ANpUXl6ev78/Nsy2V3d1DugT9AyeHa32EQ8znTp1ytvbOzw83NV+08hWlJ8U8fLyQk/Kzv0jh4mcwMBA5a0U/G39l9csgPPuqKgoPI5xQseZu62gJ9GfeGRHRkbaw8ymKffu3du9ezemX0uWLNm+ffulS5fknrgM7Dt6QPk5L/RJm1862oTy8vJVq1bhObtv3z4bforaiaGX9uzZg+fjypUrner3ctatW5eRkaH+i2WUaOrtWn5+fnBwMJ5vSKCTJ0/Kg0ZmQL8hYzAWoCcd67eN6+vrs7Oz8YTE09LX13fz5s2u8OsG2EfsqfLDmitWrEAPtP7HOiym/CoopmJ4zv74449Xr16Vu+fycLaHswflRwjRV872q6DYNzx8RSFKUC4K7RxO99avX4/nIQ5VbGyslde6d3roH3QX+go9hgX0nuxQR3P//v0TJ06sWbMGY5l3g4SEhKysLBt+n7RNYPuxF9gXZacA+4g9bf2rettWXV1dZmZmUFAQHoE4aUBwyj13JTdu3Dh69Cj6AY/e5cuXo2cse4PD3iPn2LFjjT/ZrUA5amWpgzhz5syGDRvwUMbx8/f337p1qyuc/JqGHtiyZYtydomeQf+gl2THORGMyL/++uu2bduUXcZIrbxAgRKM4OfPn5cdZAewVdg2bKEyb8M2Y8ux/SjBvjh6xpiAATc5ORlPVTwyly1bhmVX+P3Q0tLSXbt2YX+x19h37DX6QXZNC9l15OCgLlmyRJZqoBZtZKmjuXfvHk4JY2JiMEtVnsZ4PiclJeXn51v2g2/2D/uFvcM+Yk+VoRaPafQA+sGeX+tvBVVVVTib3r59e1hYmHJGAl4N0FERERHx8fF79+7dt29fQQNbzZCwHmWFWDPWj3vBfSmHBpTNwPZgq7Bt2EJsp9x0l4GHKHogKipK+SgEbNq0CSUVFRU3b96UPes4sP2Yx2BflP3CX+wj9su2T0n7jRx0wezZs2tqamSFBmrRBi1lhYPDHuFIb9y4EUddGXe8G142Xbt27Y8//piTk+Mon6vBdmJrsc3YcjVQlcELg5rySoXceWpCXV3dxYsXT548mZ6e/tNPP2EWGBcXFxAQ4NtA6VUln5SEUCl9rqW0UW8FWA/WhnVizVg/7gX3ZdkrJ64GvYTuSklJCQkJ8W+A8Xr58uUJCQk///wzZuq//fab/UQRtuTWrVvYqoMHD2ILsZ1KwGCzsf3YC+yLocfdTiPH/CypNiOZnAP28fz58xkZGZs3b8bJppJGykvnyiCiZNL69ev3Njh+/DhOWo0IJ6wTa8b6lTvCPWoTRfmrDGTYTmwtthlb7grHiEjx+++/nz59ev/+/QhyjOaBgYEBD+FfZbaK8R0N8vLyiouLMe+/3eCWhnziNaLkhwLBhptjPVgb1olTB6wf5xC4LyUIAfeOLcECtgp3jS3EdspNN5idRk6LXjFr9vU3F3H//v1z587hYXTgwAGcqGKCjAdccHCwEk5C4zNflXqarCaHEBoaijVj/bgX3BfuEffrxK/jE9nWtWvXSktLc3JycDa2bds2zDbwPA1sREmIpujWYj1YG9aJNWP9uBdzrpzSmuwxciz4XICJTxm4sqNHjw4aNKhF12tAcnh4eNj21VsiIoXdRY7Fn37W/Sy1K/v111/79evX+LrXzRo1atTx48dlKRGR1ewrcqz8jqf4xqgrO3v27IABA3bs2CErzPDFF1/Ex8fLUiIiq9lR5NjkSjaBD6+L48rKy8uHDBkSFxcnK8wTERExe/ZsWUpEZDV7iZyKigqbXK9TufqnPV99y2jXr19/9tlnV65cKSvMhpnihAkTZCkRkdXsJXLWrFnTone5TcB6sDZZ6hpu3779wgsvWPn5verqag8PDwe6KBYROQp7iRyyXk1NzZtvvjl9+nRZ0XKDBg2ytx8FICInwMhxEnV1dR9//PF7773Xoqu6NuXdd99NSkqSpURE1mHkOImZM2e++uqrtvo+jXIhP1lKRGQdRo4z8Pf3Hzt27K1bt2SFpXbv3j158mRZSkRkHUaOw4uOjh42bFhlZaWssMKFCxcGDBggS4mIrGNHkePu7q67TCZs3br18ccfN/96dObr3bu3K3/WnIiMwMhxYAcOHOjXr19hYaGssIVXX33VgovlEBGZYO+Rc/PmTfeHsKwUXrhwQS3EsnqT9PR00dKJnThxom/fvkeOHJEVNrJw4cJVq1bJUiIiK9h75GgLhw8f3rhQXf7Tn/40ZcqUxg2cknIJtZSUFFlhO4mJiR9//LEsJSKygr1HzujRo9VClW5LbaHurZzG1atXhw4davEl1MxUWFioZjwRkU3Ye+TovrCGCY1a6K4XOU7s1q1bY8eOXbZsmaywtfv373fr1u327duygojIUvYeOVqDBg1SFnRrdQudTE1NzRtvvDFjxgxZYYxx48YdPXpUlhIRWcreI0f72k7//v3FwoMm3uBxVl9++eWUKVNsckkbc0yfPt2any8iIhLsKHJ0X0Mzv9Dd2SPH39//+eeft9X1ts2xZs2ab775RpYSEVnKjiKHTNiwYcOTTz5p20sMNCsrK+u5556TpURElnLIyKmtre3cuXOrvb7U5tLS0vr373/mzBlZYbDffvute/furtPPRGQ0h4ycBw1v51y+fFmWOiPlK5/Z2dmyolUMGzbs5MmTspSIyCKOGjljxozJy8uTpU6nrKzM6K98mvbhhx9u3rxZlhIRWcRRI2fSpEn79u2Tpc7l5s2bI0eOjIyMlBWtaMWKFYsXL5alREQWcdTI+frrr+Pj42WpE6mtrX3rrbdmzZolK1pXWlraG2+8IUuJiCziqJHj6+sbFBQkS50IwgaR0+Zv3V++fLlPnz6ylIjIIo4aOdHR0W0+AzBOZGTkyJEj7eR62P3797906ZIsJSJqOUeNnKSkpGnTpslSp7B3794BAwaoP8rQ5jDZ2rNnjywlImo5R42crKys8ePHy1LHl5+f37dv35ycHFnRdry9vZcvXy5LiYhazlEj5+zZs0OGDJGlDq6iouKJJ57ABE5WtKlt27Y564SSiFqZo0bOnTt3unbtKksdWU1NDeZtgYGBsqKtnT59eujQobKUiKjlHDVywMPDo7q6WpY6rOnTp7/33nv19fWyoq3V1dV1797dmbqaiNqKA0fOU089derUKVnqmKKjo0eNGmW3v4eG6VdmZqYsJSJqIQeOnJdffjkjI0OWOqCff/65f//+paWlssJuzJw5s20vgkBEzsGBI+eTTz7ZsmWLLHU058+fR97YeXbGxcV99dVXspSIqIUcOHIWLFiwevVqWepQfvvtt5EjR8bExMgKO5ObmztmzBhZSkTUQg4cOaGhoYsWLZKlDuWDDz6YPn26LLU/d+/e7dq1a01NjawgImoJB46czZs3f/rpp7LUcURERPztb3+7d++erLBLI0aMyM/Pl6VERC3hwJFz8ODBV155RZY6iKysrH79+pWVlckKe/XZZ58lJCTIUiKilnDgyCkuLh4+fLgsdQQVFRUDBw5MS0uTFXYsLCxs3rx5spSIqCUcOHKqq6t79OghS+1ebW0tJmcBAQGywr4dOHBg4sSJspSIqCUcOHLA3d39zp07stS+eXl5vfnmm3V1dbLCvlVVVTliwBORXXHsyBkyZMjZs2dlqR1LSUl54oknMHzLCkcwcODA8+fPy1IiIrM5duSMHz/+yJEjstRelZWV2dsPE7TIO++8k5ycLEuJiMzm2JHz/vvv79ixQ5bapdraWgRkWFiYrHAcfn5+/v7+spSIyGyOHTlz5851lGt/BQQEvPnmm3Z4oWjzYYozZcoUWUpEZDbHjpwVK1Z4e3vLUvtz+PDhP//5zxUVFbLCoZw7d27gwIGylIjIbI4dOQkJCZ9//rkstTM3btx44oknUlNTZYWjwRStR48eDvrZByKyB44dOfv373/jjTdkqZ15//33neZLlBMnTjx48KAsJSIyj2NHTmFh4YgRI2SpPYmLixs9erSjXEitWchOh/4EBBG1LceOnKqqql69eslSu3HmzBlPT0+n+elS+P777z/77DNZSkRkHseOHOjSpcvdu3dlqR2oq6v7+9//7igfqDNTfn7+s88+K0uJiMzj8JEzaNAg+/xKfERExMSJEx36U9GN1dTUdO3a1T4znojsn8NHzvjx47OysmRpWyspKfH09HSsi/GYafTo0bm5ubKUiMgMDh8506ZNS0pKkqVtqq6uDkEYHR0tK5owYMAAWWSeKVOmdOzYUZY2zeI70vrqq6/i4uJkKRGRGRw+cubMmRMVFSVL29Tq1atffvll819Se+mll2SR2VqUIi1q3JTIyMiZM2fKUiIiMzh85AQHB9vVBQhOnz7t6enZ1NtLyqBvk6Ff0aJVmW5s5rZlZmZiDidLiYjM4PCRk5CQ8MUXX8jSNlJXV/fiiy+uWbNGVjykTGi00xrx4hhG/NTUVPcGV69eVQqxoJRASUmJ2lhpb3pZvS1WqxaeOXNGXSGWlcLG26arurr6sccec7jf+yEie+DwkWNXFyAICwt79dVXm3pJralphLYE8fPee++J8qefflpt8Pzzz6vLD5qIGe2yelusVs023ZbqcuMtFIYMGYLJnCwlImqOw0dOQUGBnXxTpLS0tE+fPk29pPag6WlE40FfLJvIAN322mXzCx80vYUC0mv79u2ylIioOQ4fOfZzAYLJkyevXLlSlj40ZcqUp5566urVq/grqpoKAN2EEHTba5d1CzHdUV9Y0/aeuoWmf6Rg+fLlPj4+spSIqDkOHzn19fX2cAECnPWPGjWqpqZGVmgoI37j/NBNBe1y45uodNtrl5st1GpqC4U9e/a89dZbspSIqDkOHzkP7OACBNXV1Rims7OzZUUjuq9c6aaCdrml7+Vo37bRfS9Hd4WvvvpqbW2t8let1XXp0qX+/fvLUiKi5jhD5LT5BQhmNJClesQ0ws/Pz93d/X/+53/wF8vaKu2y7ifWGt9W98NppgvdNZ+LM3OKo+jTp8+VK1dkKRGRSc4QOW17AQJMbjBMY6IjK5za66+/npaWJkuJiExyhsiZM2dOW12w+f79+6NGjXLBj28tWrRoxYoVspSIyCRniByMfW11AYKVK1dOnjxZlrqAzZs3f/TRR7KUiMgkZ4ichISEzz//XJYa7+LFi3369CktLZUVLqCoqGjYsGGylIjIJGeInP3797/++uuy1Hg4zQ8MDJSlrqG2trZ79+6//fabrCAiapozRA7OuEeMGCFLDZaRkTFo0KDff/9dVriM5557rm0/KEhEDscZIuf69es9e/aUpUa6f//+yJEjk5OTZYUr+eabb0xcwJSIqDFniBxwd3dvzQlHVFSU/VxLtK2sW7du+vTpspSIqGlOEjmDBw8+d+6cLDVGZWVl3759i4uLZYWLOXr06Lhx42QpEVHTnCRyxo8ff+TIEVlqDJzaL1y4UJa6ntu3b3fr1u3+/fuygoioCU4SOR988EHrfB/z2LFjAwYMuHnzpqxwScOHDy8sLJSlRERNcJLImTt3bkREhCw1AKZTCQkJstRVffzxx4mJibKUiKgJThI5K1euXLJkiSy1NUykxo4d29SPfrogdDtfYyQi8zlJ5GzatOmzzz6TpTZVU1MzePDgQ4cOyQoXtn///tdee02WEhE1wUki58CBA0aPfaGhoVOnTpWlrq2ioqJ3796ylIioCU4SOSdPntT+7JjNVVVVeXp6qr9VQ6oBAwZcuHBBlhIR6XGSyKmuru7Ro4cstZ05DWQpPXgwefLk3bt3y1IiIj1OEjnQtWvXO3fuyFJbOH36NKY4mOjICnrwwNfXd9myZbKUiEiP80TO0KFDz5w5I0ttYerUqaGhobKUGiQlJb377ruylIhIj/NEzt///vfMzExZajWsc/DgwTU1NbKCGpSUlAwaNEiWEhHpcZ7I+fDDD7dt2yZLrfbiiy9u3rxZltJD9fX1Hh4e1dXVasmlS5c09URE/+E8kTNv3jybX4AgJSVl9OjR/O6n1r1790TJhAkTMjIylOWEhIRWu9gdETkc54mcVatWLV68WJZaoba29plnnklNTZUVru3OnTtLly4tKytTS2bPnq2E/cmTJ7t373737t3/tCYi0nCeyElMTLTtBQg2btz48ssvy1JqiBZPT08vLy/lLa74+PgvvvgCUTRkyJDHH39ctiYiesh5IufAgQOvvvqqLLUUTtUxemZnZ8sKapCQkNCuXbs+ffrs27fvxIkTo0aN+uc//9m+ffv3339fNiUiesh5Iqe4uHj48OGy1FJhYWH87K9pX375Zbdu3dzd3V977bUuXbr07t0bkfPDDz/IdkREDzlP5NjwAgRYVb9+/fi7n6bduXPn6aef7tWrl5ubG4KnQ4cOWNC+x0NEJDhP5DxouADB7du3ZWnL+fn5ff3117KUGjl58iRiHmHTrkH37t1lCyIiDaeKHJtcgKCqqqp37948WzdTQkICukuJnBdffFFWExFpOFXk2OQCBIsXL545c6Yspab985//xFynffv23333nawjItJwqsix/gIEV65cwTl7eXm5rKCmKR+P7tixI78ESkSmOVXkWH8Bgrlz5y5YsECWUnNOnjz52GOP8UugRGSaU0WOlRcguHjxIqY4V69elRVkhl9++UVdRgIFBQX5PoRllGjaEpGLcqrI2bRpkzUXIPj22299fHxkKbUEYhvTxOjo6AsXLlQ/hGWUoBy18gZE5EqcKnIOHDjw2muvyVLznD9/vk+fPtevX5cVZLacnBzkCqaJathooRy1aCNvRkQuw6ki5+TJk88884wsNc+//vWvgIAAWUpmU+Y3Mmca4VyHyJU5VeTcuHGjZ8+estQMyhSnWvOjL9RSJuY3WspcR96YiFyDU0UOdOnS5ffff5elzeEUx0rFxcVr166V8dIEtOTFhIhck7NFzuDBgzFlkaUmcYpjvVWrVmk/L2AaWqK9XAURuQBni5zx48dnZWXJUpM4xbGen5+fDBaT0F6ugohcgLNFzrRp03bu3ClLH7p586Yo4RTHJpYuXSpTxSS0l6sgIhfg8JEjvvE+a9as6OhobYlWYmKiKOEUxyY4yyEiczh85JSUlBw+fFj9V/nSu6b+31cAU5enTJnyn4oHD0pLSznFsYmQkJAWvZeD9nIVROQCHD5yYObMmYcOHVKW4+Pjv/rqK7UK5cnJyeq/Xbp00b629s033/AVHpsoLi5et26dzJYmoCU/sUbkmpwhci5duuTp6amkzr59+yZNmqSU79ixo2fPntqMadeuXUxMjLKsXFGNlxuwlUWLFpn5vRy0lDcmItfgDJEDX3zxRdeuXZE6eXl5Y8aMQUlaWlqnTp3EK2mInJEjRyrLs2bN8vb21taSNRD8ixcvlgnTCNqgpbwxEbkGJ4kcjGWdO3fu0qXLrl27+vfvn5GR4ebm5uHhIT4vgMhBDmHeU15ejilOZWWlUn7r1q1NmzYlJyfX1tZq21OLHDt2DInS1FwH5ahFG3kzInIZThI5Dxp+LAeJ8thjj3Xs2LFbt27KsvhUNArbt28fGRmJxgsXLkTS+Pn5TZgwoVevXgkJCdqWZBllrrN27dqLFy+qYYNllHB+Q0TOEzmYoHTv3h2hgvkNcmXo0KHiVbUHDZEDTz31FNJo8ODBaIZ/R4wYwV9zsa1Tp06tWrUqICBg6tSp+ItllMhGROR6nCdyYP369UqKKEHS+Fs4SpXSplOnTr179/7yyy+1n6Im2woMDJRFROTCnCpyYODAgUqoNH5V7cHDyAEPD4+ePXvyxTSjMXKISMvZIicjI6NDhw6DBw9u/Krag4eR06tXr2HDhvHFtFbAyCEiLWeLHBg3blynTp0av6r2oCFyMPv57LPP+GJa62DkEJGWvUfO9evXS0tLT5w4genLzp07ExISoqKiAhsE/JGfn59/g7lz53bp0mXJkiXKvwqlFlGkvKENykoiIyOxzqSkJKw/NzcX96V+cpqsx8ghIq22j5zy8vLs7Ozt27eHhoaq4QFLG6AwNjZ2x44daWlpv/zyS1FR0fnz5zVf9tCXmpoqixpgDaIEGVNYWJiTk4ObINJwX+Hh4cpdqxkGwcHBmDZlZmaifX19vdwHagIjh4i0Wi9yMFKXlJTs3bs3IiJCmXb4+vr6+PjExMQkJydjhnH58mWRB/YDU5+8vDxsPDIJaYQtV2IJUYQZUn5+/u3bt+UOEyOHiP7IwMipqqpKT09fvXq1MkYjXTZu3JiRkVFWViZHdIdVUVFx9OjRLVu2LF++HDuIPcUgi9mS01+2MiEhQXll0rSXX35ZFunhRweJXIQtI6e2thZTgaioKAy+3t7eISEhaWlp5l/T3jlcu3YtKysL4erTYNmyZbt370b6ys5yDYGc5RCRhg0i5/Tp04gZZAymMlu3bi0pKZHDsAurrKw8dOgQ0lfpH8TPrVu3ZA86L0YOEWlZGDn19fWZmZl+fn5eXl4bNmxgzJjjxo0bGRkZQUFB6LTw8PCysjLZrU6HkUNEWi2OnIKCAiVpUlJScAovh1Uyz5kzZ2JiYpTsceKPZTNyiEjL3Mipqan54YcfFi1ahDlNU1enJwtggrhq1Spvb++DBw/KTnd8jBwi0mo+cmprazdu3Iiwyc7OluMl2Q5mjQsWLEhNTZUHwJExcohIq5nIQczMnj3bJmHj5uYmi1rCyps3ZezYsY8++qgsbTv79u2bM2cOpj7ySDgmRg4RaTUZOXV1dcHBwbGxsXJQNMPFixfdHlJ/qsvKzDD/5oiQxvdugvlrbh1VVVXh4eFr166Vh8QBMXKISEs/cu7fv79w4cJjx47J4dA82kFcXbZyZDf/5rr3boI5bVpfZmamv78/gl8eG4fCyCEiLf3IWbp0aVFRkRwFzaYdxEeMGKEWJicni8lHYWGhUgJYVgq1k6SQkBD15spCSANlWZfaUrusO/ESbRS6Ld30Nl53O3X3yDInTpwICgqSx8ahMHKISEsnco4ePRoXFyfHv5Zw05s3PProo5MmTVKW1Qbaluqyp6enWjhnzpxt27aptVhGiVqrS7tONfCefPJJtVC7/upGW6vbUnfjTWynQrcfWmT9+vV5eXnyCDkORg4RaelEjo+PT1VVlRz8WkJ3qNUdi5stVKEwKytr6tSpsqIR7Xs5uh8NEOvXvTuF7ibpFqp0W1oMB8KhR22H3ngisjmdyPH29pYjXwvpDrW6Y7E2HkwP5UpLcyJH9448PDzUexE5JO5Ot6W2jbosbqjQ3SNr+Pn5ySPkOBg5RKSlEzm2neVo38tRC02P2iYKW/rCmu4difWb+Nf0zU1sp61wlkNEzkQncrKzs234Xo7uAK0ua98OUd9EMf0eiWUfH1DXOWnSJNOzHN2WptdZrdlO3T2yWGxsLN/LISKnoRM5D6z+xFpTH/pSG6jLui11Pwmmvbk6vuvSvrTVeJ3KB8+UwqlTp2L5kUcecdO8ZKfbUl3QLutup+4eWYafWCMiJ6MfObW1tdZ8L4esx+/lEJHz0Y+cB9ZdfYCswasPEJGzajJyFNnZ2XPmzLHJNdbIHKmpqXPnznWOa6zduXPnzTffxF9ZQUSuqpnIedDwItv333/PK0kbTbmSdFpamjwAjgmz5Hnz5v3666/46+gvDxKRrTQfOYqamppNmzbx93Jszll/LycwMLC4uBgL+MuX14hIYW7kqAoKCvz9/fmroFY6c+bMmjVrnPVXQdetW5eRkaH+i2WUaOqJyEW1OHIU9fX1mZmZyi9Sx8fH41RdjqnUyI0bNzD4BgUFYU6DpCkrK5Pd6hR27969efNmUYgSlItCInI1FkaO1unTp6OiojCM+vr6bt26lfGjhRnMoUOHQkNDlf7BsHvr1i3Zg07k2LFj2FlZ2gDlqJWlRORKbBA5qtra2ry8PMQPxlaMsBhi0tLSLly4IIdhp3bt2rWsrKyNGzf6NFi2bBlipqqqSnaWM8K8bcmSJbJUA7XOOrcjInPYMnIEjLPp6enh4eFLG2D8xUCckZGBQUeO0w6roqIiOzsbc7ugoCDsIHYzMDBw586dyjvnLgW9MXv27JqaGlmhgVq0QUtZQUSuwcDIEerr60tKSvbu3RsREREQEODn54cBGvOhmJiYlJSU3NzcK1euyBHdblRWVubn52PjY2Njlc1WcnTFihVJSUmoun37ttxhV2J+llSbkUxE5KxaL3KaUl5ejonC9u3bQ0NDAxr4+/v7NcCYHhYWhlEew3paWlpOTk5RUREmSTdv3pSZYKkLFy5gnQg8rB+zE9yXOi3DBvg3wCYFBwcnJiZmZmaWlpYiO+U+uLwWvWLW7OtvROSs2j5yTLt+/TpG+RMnTmRkZCASEhISoqKiAjWUlFKCSl3QErUK9eaRkZFYJyIN60fw4L6c7yPLRrPgcwEmPmVARE7M3iOH7JzFn37W/Sw1ETk3Rg5ZzsrveIpvjBKR02PkkIVsciWbwIfXxSEiV8DIIUtUVFTY5HqdytU/sTZZQUTOiJFDllizZo2tfpUA68HaZCkROSNGDhERtRJGDhERtRJGDhERtRJGDhERtRJGDrUNd3d3WUREzo6RQxb605/+5P7QzZs3ZXVzGDlELoiRQxbSZoYF+WHBTYjI0TFyyEK6kYPpTuOpD5bT09MbFyoLMQ2UZSJybowcspA2ckaPHq0sDB8+XC3s37+/svCnP/1pypQpyrJ6K2Vhz549ixcvVkqIyOkxcshC2vdysCyrG6VL48KCgoIPP/xQrSIip8fIIQvpBknPnj0b55BuSyWxGDlELoWRQxbSDZKWFvKFNSKXwsghC+kGifr+zZQpU0zPctQFfnyAyHUwcshCut/LUT+xpnxETSk0HTmAiQ6mO+q/ROSsGDlERNRKGDlkoHbt2skiInJhjBwyECOHiLQYOWQgRg4RaTFyyECMHCLSYuSQgRg5RKTFyCEDMXKISIuRQwZi5BCRFiOHDMTIISItRg4ZiJFDRFqMHDIQI4eItBg5ZCBGDhFpMXLIQIwcItJi5JCBGDlEpMXIIQMxcohIi5FDBmLkEJEWI4cMxMghIi1GDhmIkUNEWowcMhAjh4i0GDlkIEYOEWkxcshAjBwi0mLkkIEYOUSkxcghAzFyiEiLkUMGYuQQkRYjhwzEyCEiLUYOGYiRQ0RajBwyECOHiLQYOWQgRg4RaTFyyECMHCLSYuSQgRg5RKTFyCEDMXKISIuRQwZi5BCRFiOHDMTIISItRg4ZiJFDRFqMHDIQI4eItBg5ZCBGDhFpMXLIQIwcItJi5JCBGDlEpMXIIQMxcohIi5FDBmLkEJEWI4cMxMghIi1GDhmIkUNEWowcMhAjh4i0GDlkIEYOEWkxcshAjBwi0mLkkIEYOUSkxcghAzFyiEiLkUMGYuQQkRYjhwzEyCEiLUYOGYiRQ0RajBwyECOHiLQYOWRLp06d0v4rIkfUEpGrYeSQLa1evfrQoUPqv9rIQTlq1X+JyAUxcsiWKisr+/Tpo6aOGjkoQTlq/9OUiFwPI4ds7OOPP+7SpYuSOkrkYBklKJdNicjFMHLIxoqLi5E0Xbt2RdJgAX+xjAWUy6ZE5GIYOWR7zz//fPv27T08PJA0+ItllMhGROR6GDlke+np6e7u7h07dsT8Bn+xjBLZiIhcDyOHDPH444+3ewjLspqIXBIjhwwRFxfXpUsX5A3+YllWE5FLYuSQIe7du/fYY48hcvAXy7KaiFwSI4eM4uPjg8jBX1lBRK6KkUNNKisrKy0tPXz4cEZGxubNmxMaREdHBzYIaMTf39/Pz8//oUWLFrm5ueGvWqLUypsFBCgrxJqVu8B94R5xv7h3bIPcLCJyWIwcV3ThwoX8/Pyff/4Z4/vq1auVGFAiAZY+tG7dutjY2H379qWmpubl5RUVFRUWFp47d67abGlpabKoaVhzUQPcF+4R94t7xzao26Nsnhpa2HJsP/YC+4I9kjtJRPaHkeO0qqqqcnJydu7cGR4eLuJk7dq127Ztw7COCLl06ZIc+x0Ethzbj73AvmCP1FhSZlQRERHYd/QA+kF2DRG1EUaOM8Comp2dvWnTJjVUfH19Q0NDk5KSsrKySktL5WjtArDX2Hf0QFhYmNInSiChl9BXzCGiNsHIcTx37tw5fvz4hg0bMID6NAgJCdm1axcKb9y4IYde0kD/oJfQV+gx3wbow/j4eBSiV2VHE5GtMXIcwN27d3NyciIiIpAuXl5ey5cv3759e0FBgRxQySLoSfQnetXb2xs9jH5Gb6PP5WEgIqsxcuxURUXFli1bli5dikEwICAAY6Jrvj7W+tDPO3bsQJ+j59H/OAo4FvLwEJFFGDl25MaNG0lJScpUJjQ0NDs7Ww6H1OpwFMLCwpQJEI4OjpE8bERkNkZO2yspKQkJCUHMBAcHHzlyRI55ZDdwdFasWIH4wQkBjpo8kETUHEZOm8nLy1u2bNmSJUtiY2PLysrk8EZ2DMcLRw3H7rvvvsvPz5eHloiawMhpbdevX4+OjsZo9f3331+9elUOZuRQcARxHDFDjYmJwZGVB5uI/oiR03qOHz+OsWnFihXFxcVy6CIHh2O6cuVKb2/vEydOyANPRA8xclrDoUOHFi1alJCQgBNhOVaRE8HxxVFevHhxZmamfBAQESPHaDj5nTdvXlJSkhycyKnt3Llz/vz5p06dkg8IItfGyDFKTU1NSEhIeHh4VVWVHJDIBeC4R0REhIaG4pEgHxxEroqRY4gLFy7MmjWr1d6zcXNzk0UtZ5OVOCjj9h2PgdmzZ1+8eFE+RIhcEiPH9goLCxcvXlxZWSmHH5MwKrk1wIKsa0QMkTYZMUeMGCGLLDVnzhxlXx555BFlASWyURvR7Ssb7ntjeCQsWbKkqKhIPlCIXA8jx8YQGMgbOeqYQR0KdcdEwYjIMYIdblhbbZKXlxfnOkSMHBubO3euZd+2UU+01QXt4Gg6Y/BvcnKyMp9QJ0nqtElbqNsSxo4d++ijj6r/Vje0VKFq1qxZKMQETi3Esra9Ljebbqduy2YLQ0JClEKFW6PIabzvuut009sk8+FRMX/+fPlwIXIxjBxb2rdv3969e+VgYwbtOKgu6xZOnTrV7eELVlhWCjFiTpo0SbTUvbluS91/tTZs2BAWFlbdxDpNEG107/3JJ59UG3h6eioLui21a1NvpXtzdaG64VW+bdu2VTfRdQoTXWFO15kpNTU1JSVFPmiIXAkjx5aWLVt27do1OdKYQXeM0y1s9l/TN9cWijcwmhpGExMTZ8yYoSzrrtMEE9up+/aJ7naqy7o30dK9uaBbZWI7ddepu5Jm4bExc+ZM+aAhciWMHFvy9vaWw4x5cAbt9pD6Io+JMc7Ev6aHSBNjZeOqX375BYXTpk1TS7Tb2bh9Y6KN7k08PDzUFZred93Xu5q9uaBbJQq1/6rLuoUt5evrKx80RK6EkWNLmA040CxHEFXnz58fNWqUtqS6UZtmmdhO3ULd7dS91cCBA5UF3Za6N1HoVpnYTt116q7EHH5+fvJBQ+RKGDm2lJycbMR7OZMmTVLP30VV438b37ypQkFUvfDCC9p/Fdr3SLRvojTFxHaq1HVqd1N3402/baO9ue57OQrdbTCxnbpdp7uSZqWnp/O9HHJxjBxbqq+v//zzz69cuSIHm+boDmfq60jKB6XUBmqV+h646Zu7/fFjV2pLle776v/93/+t3hyWLl1a3cQ6TXBreihX6e6mtqW6rHvvujc38Yk10XW6+657R256m2S+iooKPDbwCJEPGiJXwsixsdLS0kWLFvHynaSFx8PixYvx2JAPFyIXw8ixvbNnzy5cuNCCuQ45Jcxvvv3228LCQvlAIXI9jBxDXLt2bd68ednZ2XL4IRfzyy+/zJ07t7y8XD5EiFwSI8co9fX1CQkJAQEB5rznQc4Hx93X1zc6Orqurk4+OIhcFSPHWNevX/f39w8LC2PwuA4caxxxPz+/iooK+YAgcm2MnNaAoScoKAgznlb7OQNqEzi+vg0uXLggHwRExMhpTb/99tuaNWt8fHzi4uL44QJngqO5YcOGhQsXxsTE3Lx5Ux54InqIkdMGTp8+vXz58iVLlmzbto3Z47hw7LZv37548WI/P78TJ07Iw0xEjTBy2lJOTk5wcLC3t3dISEh+fr4c0sgu4UiFhoZitopjhyMoDyoRNY2RYxcqKio2btyIUczLy2vdunWMH3uDI4LjgpMDHCMcKX4ugMgyjBy7c/bs2fj4eIxuS5YsWbVq1U8//XT58mU5BJLB0OfoefQ/TgJwLBAzOC7yUBFRCzFy7FpVVVVqampQUBBOrpFAK1eu3Lt37/nz5+UASVZDr6Jv0cPoZ19f3+DgYPQ8+l8eEiKyAiPHkWBk3L9//+rVqzEmYmTECTiGyF27dvGz1y2FHkO/ofcwg0E3oj/Dw8PT09NRJTudiGyHkePYrl+/fvjw4TVr1mDQxExIGUAxK0pMTDxy5EhZWZkca10MegD9gN5AnygvkaGX0FfoMfQbek92KBEZiZHjhDDUnjhxIikpKSwszOchrwYYeePj4/fu3Zubm+sccyPsBfYFe4T9UnJFmbUoe40eQD+gN/h1GSJ7wMhxLTivLyoqOnDgAE78165du3TpUuXb8soMSfnMAv76+fmtbbB7926M5kePHi1ocPbsWTnk2xTWr9wR7hH3i3tXNgPbo26bOlMBbD9qsS/YI+zXjRs35A4TkT1h5JBUV1d39+7dsw1+/vnn9PT0rVu3bmgQHh6ujPWNKRMpdVKlaNeunShR2sgbPxQREaHcEe4R95uRkaFsBraHP25G5AQYOWQgRI4sIiIXxsghAzFyiEiLkUMGYuQQkRYjhwzEyCEiLUYOGYiRQ0RajBwyECOHiLQYOWQgRg4RaTFyyECMHCLSYuSQgRg5RKTFyCEDMXKISIuRQwZi5BCRFiOHDMTIISItRg4ZiJFDRFqMHDIQI4eItBg5ZCBGDhFpMXLIQIwcItJi5JCBGDlEpMXIIQMxcohIi5FDBmLkEJEWI4cMxMghIi1GDhmIkUNEWowcMhAjh4i0GDlkIEYOEWkxcshAjBwi0mLkkIEYOUSkxcghAzFyiEiLkUMGYuQQkRYjhwzEyCEiLUYOGYiRQ0RajBwyECOHiLQYOWQgRg4RaTFyyECMHCLSYuSQgRg5RKTFyCEDMXKISIuRQwZi5BCRFiOHDMTIISItRg4ZiJFDRFqMHDIQI4eItBg5ZCBGDhFpMXLIQIwcItJi5JCBGDlEpMXIIQMxcohIi5FDBmLkEJEWI4cMxMghIi1GDhmIkUNEWowcMhAjh4i0GDlkIEYOEWkxcshAjBwi0mLkkIEYOUSkxcghWzp16pT2XxE5opaIXA0jh2xp9erVhw4dUv/VRg7KUav+S0QuiJFDtlRZWdm7d281ddTIQQnKUfufpkTkehg5ZGOffvqpm5ubkjpK5GAZJSiXTYnIxTByyMaKi4uRNO7u7kgaLOAvlrGActmUiFwMI4dsb8KECciY7t27q39RIhsRketh5JDtpaenK0nj5uampA5KZCMicj2MHDLEoEGD2j2EZVlNRC6JkUOGiI+P79atG/IGf7Esq4nIJTFyyBD37t3r0aMHIgd/sSyricglMXLIKH5+fu3bt8dfWUFEroqRQ827fv16aWnpiRMnMjIydu7cmZCQEBUVFdgg4I8QMP4PLVq0qEuXLvirlii12vbKSiIjI7HOpKQkrD83Nxf3xS+NEjklRg79W3l5eXZ29vbt20NDQ9XwgKUNUBgbG7tjx460tLRffvmlqKjo/Pnz1WZAe1mkBxlTWFiYk5OTmpqKSMN9hYeHK3etzbDg4ODExMTMzEy0r6+vl/tARHaPkeNaMFKXlJTs3bs3IiJCmXb4+vr6+PjExMQkJydjhnH58mUZCHYDU5+8vDxsPDIJaYQtV2IJUYQZUn5+/u3bt+UOE5E9YeQ4uaqqqvT09NWrVytjNNJl48aNGRkZZWVlckR3WBUVFUePHt2yZcvy5cuxg9jTwMBAzJZ4vQMie8PIcTa1tbWYCkRFRWHw9fb2DgkJSUtLu3Dhghynndq1a9eysrIQrj4Nli1btnv3bqSv7Cwial2MHCdx+vRpxAwyBlOZrVu3lpSUyGHYhVVWVh46dAjpq/QP4ufWrVuyB4nIeIwcB1ZfX5+Zmenn5+fl5bVhwwbGjDlu3LiRkZERFBSETgsPDy8rK5PdSkSGYeQ4pIKCAiVpUlJScAovh1Uyz5kzZ2JiYpTs4ceyiVoBI8eR1NTU/PDDD4sWLcKc5urVq3IEJUthgrhq1Spvb++DBw/KTici22HkOIba2tqNGzcibLKzs+V4SbaDWeOCBQtSU1PlASAiW2DkOADEzOzZs20YNm5ubrLIuVi5g/v27ZszZw6mPvJIEJF1GDl2ra6uLjg4ODY2Vg6KZnj00UfdGiQnJ4uqESNGiBJ7c/HiRWXjAcuyujlWRg5UVVWFh4evXbtWHhIisgIjx37dv39/4cKFx44dk8OhedRhd9KkSRaM2m1LmxkW5IcFN9GVmZnp7++P4JfHhogswsixX0uXLi0qKpKjoNmaGrXHjh2LCZD6b3UTUwq3humRKCwsLFRbYtlES9116t5cl5tmg9U5me46dQvd9DbJMidOnAgKCpLHhogswsixU0ePHo2Li5PjX0u4NRE5pv998sknlQXEEqZHyrKnp6eyoLtObUu1UHedujfXpVurrqe6iU3S3XjdVbXI+vXr8/Ly5BEiopZj5NgpHx+fqqoqOfi1hInxXfyr+9aO7s3NLzR/nbpM11bb7o7MgQMRGBgojxARtRwjx055e3vLka+FTAy74t+mXptSG6jL6kcSFCZa6q5T9+a6dGs9PDzU26qvDerekfbmuqtqKf7QHJFNMHLsVGvOcrQGDhyoLOjeXPeGui21dNdpmralOo+x7I50W7YIZzlEtsLIsVPZ2dm2ei+n8SfWxCis+x6J7ns56kJ1c+/Q6K5T9+a6dNep3hwbps5ydO9I9+YWi42N5Xs5RDbByLFfVn5iTX0VS/u9nKlTp6LkkUcewV8sK4VNvTbV+ENfTbVUFrTLui11C3XptlQLlQ0z0VKtFcsW4CfWiGyIkWO/amtrrflejpWsHKmdA7+XQ2RbjBy7Zs3VB6zk4pHDqw8QGYGR4wCys7PnzJljw2uskWmpqalz587lNdaIbI6R4xhqa2u///57XknaaMqVpNPS0uQBICJbYOQ4kpqamk2bNvH3cmyOv5dD1DoYOQ6poKDA39+fvwpqpTNnzqxZs4a/CkrUahg5Dqy+vj4zM1P5Rer4+HicqssxlRq5ceNGRkZGUFAQ5jRImrKyMtmtRGQYRo6TOH36dFRUFIZRX1/frVu3Mn60MIM5dOhQaGio0j+7d+++deuW7EEiMh4jx9nU1tbm5eUhfjC2YoTFOJuWlnbhwgU5DDu1a9euZWVlbdy40afBsmXLEDNVVVWys4iodTFynBzG2fT09PDw8KUNMP5iIM7IyCgrK5PjtMOqqKjIzs7G3C4oKAg7iN0MDAzcuXNncXGx7A4ialOMHNdSX19fUlKyd+/eiIiIgIAAPz8/DNCYD8XExKSkpOTm5l65ckWO6HajsrIyPz8fGx8bG6tstpKjK1asSEpKQtXt27flDhORPWHk0L+Vl5djorB9+/bQ0NCABv7+/n4NMKaHhYVhlMewnpaWlpOTU1RUhEnSzZs3ZSZY6sKFC1gnAg/rx+wE96VOy7AB/g2wScHBwYmJiZmZmaWlpchOuQ9EZPcYOdS869evY5Q/ceJERkYGIiEhISEqKipQQ0kpJajUBS1Rq1BvHhkZiXUi0rB+BA/uix9ZJnJKjBwiImoljBwiImoljBwiImoljBwiImol/w9GvT90bE3BfAAAAABJRU5ErkJggg==;" vertex="1" parent="1">
            <mxGeometry x="110" y="30" width="550" height="467" as="geometry" />
          </mxCell>
        </UserObject>
      </root>
    </mxGraphModel>
  </diagram>
</mxfile>
